<?xml version="1.0" encoding="UTF-8" standalone="no"?>
<!DOCTYPE svg PUBLIC "-//W3C//DTD SVG 1.1//EN" "http://www.w3.org/Graphics/SVG/1.1/DTD/svg11.dtd">
<svg width="100%" height="100%" viewBox="0 0 512 512" version="1.1" xmlns="http://www.w3.org/2000/svg" xmlns:xlink="http://www.w3.org/1999/xlink" xml:space="preserve" xmlns:serif="http://www.serif.com/" style="fill-rule:evenodd;clip-rule:evenodd;stroke-linejoin:round;stroke-miterlimit:1.41421;">
    <g id="Artboard1" transform="matrix(1.03226,0,0,1.28967,-115.559,-226.225)">
        <rect x="111.948" y="175.412" width="496" height="397" style="fill:none;"/>
        <g transform="matrix(1.29405,-0.277532,0.433207,1.29405,-231.637,-38.2959)">
            <g transform="matrix(124,-5.50948e-15,0,99.25,187.61,383.645)">
                <path d="M0.594,-0.481C0.599,-0.49 0.602,-0.498 0.602,-0.505C0.602,-0.521 0.593,-0.529 0.574,-0.529L0.334,-0.529C0.321,-0.529 0.307,-0.524 0.292,-0.515C0.277,-0.506 0.266,-0.494 0.258,-0.481L-0.201,0.314C-0.209,0.328 -0.213,0.344 -0.213,0.36C-0.213,0.372 -0.211,0.381 -0.207,0.387L-0.074,0.613C-0.07,0.619 -0.065,0.622 -0.059,0.622C-0.048,0.622 -0.038,0.614 -0.028,0.596L0.594,-0.481Z" style="fill:rgb(222,229,237);fill-rule:nonzero;"/>
            </g>
            <g transform="matrix(124,0,0,99.25,232.525,321.613)">
                <path d="M0.273,0C0.286,0 0.3,-0.005 0.315,-0.014C0.33,-0.023 0.341,-0.035 0.348,-0.048L0.459,-0.24C0.464,-0.249 0.467,-0.257 0.467,-0.264C0.467,-0.28 0.458,-0.288 0.439,-0.288L0.199,-0.288C0.186,-0.288 0.172,-0.283 0.157,-0.274C0.142,-0.265 0.131,-0.253 0.123,-0.24L0.012,-0.048C0.007,-0.039 0.005,-0.031 0.005,-0.024C0.005,-0.008 0.014,0 0.033,0L0.273,0Z" style="fill:rgb(222,229,237);fill-rule:nonzero;"/>
            </g>
            <g transform="matrix(124,-5.50948e-15,0,99.25,241.835,383.546)">
                <path d="M0.861,-0.288C0.874,-0.288 0.888,-0.293 0.903,-0.302C0.918,-0.311 0.929,-0.323 0.937,-0.336L1.02,-0.48C1.025,-0.489 1.027,-0.497 1.027,-0.504C1.027,-0.52 1.018,-0.528 1,-0.528L0.328,-0.528C0.296,-0.528 0.275,-0.52 0.266,-0.504L0.224,-0.432C0.219,-0.423 0.217,-0.415 0.217,-0.408C0.217,-0.392 0.226,-0.384 0.244,-0.384L0.484,-0.384C0.497,-0.384 0.511,-0.389 0.527,-0.398C0.542,-0.407 0.553,-0.419 0.56,-0.432C0.568,-0.445 0.579,-0.457 0.594,-0.466C0.609,-0.475 0.623,-0.48 0.636,-0.48C0.654,-0.48 0.663,-0.472 0.663,-0.456C0.663,-0.449 0.661,-0.441 0.656,-0.432L0.628,-0.384C0.621,-0.371 0.61,-0.359 0.595,-0.35C0.58,-0.341 0.566,-0.336 0.553,-0.336L0.217,-0.336C0.204,-0.336 0.19,-0.331 0.174,-0.322C0.16,-0.313 0.148,-0.301 0.141,-0.288L0.002,-0.048C-0.003,-0.039 -0.005,-0.031 -0.005,-0.024C-0.005,-0.008 0.004,0 0.023,0L0.695,0C0.727,0 0.748,-0.008 0.757,-0.024L0.826,-0.144C0.831,-0.153 0.833,-0.161 0.833,-0.168C0.833,-0.184 0.824,-0.192 0.806,-0.192L0.566,-0.192C0.553,-0.192 0.539,-0.187 0.524,-0.178C0.508,-0.169 0.497,-0.157 0.49,-0.144L0.462,-0.096C0.455,-0.083 0.444,-0.071 0.429,-0.062C0.413,-0.053 0.399,-0.048 0.386,-0.048C0.368,-0.048 0.359,-0.056 0.359,-0.072C0.359,-0.079 0.362,-0.087 0.367,-0.096L0.45,-0.24C0.458,-0.253 0.469,-0.264 0.483,-0.274C0.498,-0.283 0.512,-0.288 0.525,-0.288L0.861,-0.288Z" style="fill:rgb(222,229,237);fill-rule:nonzero;"/>
            </g>
            <g transform="matrix(124,0,5.68434e-14,99.25,347.804,383.546)">
                <path d="M0.273,0C0.286,0 0.3,-0.005 0.315,-0.014C0.33,-0.023 0.341,-0.035 0.348,-0.048L0.459,-0.24C0.464,-0.249 0.467,-0.257 0.467,-0.264C0.467,-0.28 0.458,-0.288 0.439,-0.288L0.199,-0.288C0.186,-0.288 0.172,-0.283 0.157,-0.274C0.142,-0.265 0.131,-0.253 0.123,-0.24L0.012,-0.048C0.007,-0.039 0.005,-0.031 0.005,-0.024C0.005,-0.008 0.014,0 0.033,0L0.273,0Z" style="fill:rgb(222,229,237);fill-rule:nonzero;"/>
            </g>
            <g transform="matrix(124,-5.50948e-15,0,99.25,197.211,445.409)">
                <path d="M0.657,0.315C0.649,0.329 0.645,0.344 0.645,0.36C0.645,0.372 0.647,0.381 0.651,0.388L0.784,0.613C0.788,0.62 0.792,0.623 0.798,0.623C0.81,0.623 0.82,0.615 0.83,0.597L1.452,-0.48C1.457,-0.489 1.459,-0.497 1.459,-0.504C1.459,-0.52 1.45,-0.528 1.432,-0.528L0.328,-0.528C0.315,-0.528 0.301,-0.523 0.285,-0.514C0.271,-0.505 0.259,-0.493 0.252,-0.48L0.002,-0.048C-0.003,-0.039 -0.005,-0.031 -0.005,-0.024C-0.005,-0.008 0.004,0 0.023,0L0.263,0C0.276,0 0.29,-0.005 0.305,-0.014C0.32,-0.023 0.331,-0.035 0.338,-0.048L0.56,-0.432C0.568,-0.445 0.579,-0.457 0.594,-0.466C0.609,-0.475 0.623,-0.48 0.636,-0.48C0.654,-0.48 0.663,-0.472 0.663,-0.456C0.663,-0.449 0.661,-0.441 0.656,-0.432L0.434,-0.048C0.429,-0.039 0.427,-0.031 0.427,-0.024C0.427,-0.008 0.436,0 0.455,0L0.696,0C0.708,0 0.722,-0.005 0.737,-0.014C0.752,-0.023 0.763,-0.034 0.771,-0.048L0.992,-0.432C1,-0.445 1.011,-0.457 1.026,-0.466C1.041,-0.475 1.055,-0.48 1.068,-0.48C1.086,-0.48 1.095,-0.472 1.095,-0.456C1.095,-0.449 1.093,-0.441 1.088,-0.432L0.657,0.315Z" style="fill:rgb(222,229,237);fill-rule:nonzero;"/>
            </g>
            <g transform="matrix(124,-5.50948e-15,0,99.25,355.348,445.409)">
                <path d="M0.909,-0.336C0.922,-0.336 0.936,-0.341 0.951,-0.35C0.966,-0.359 0.977,-0.371 0.984,-0.384L1.04,-0.48C1.045,-0.489 1.047,-0.497 1.047,-0.504C1.047,-0.52 1.038,-0.528 1.02,-0.528L0.348,-0.528C0.335,-0.528 0.321,-0.523 0.306,-0.514C0.291,-0.505 0.279,-0.493 0.272,-0.48L0.161,-0.288C0.156,-0.279 0.154,-0.271 0.154,-0.264C0.154,-0.248 0.163,-0.24 0.181,-0.24L0.517,-0.24C0.536,-0.24 0.545,-0.232 0.545,-0.216C0.545,-0.209 0.543,-0.201 0.538,-0.192L0.482,-0.096C0.475,-0.083 0.464,-0.071 0.449,-0.062C0.434,-0.053 0.419,-0.048 0.406,-0.048C0.388,-0.048 0.379,-0.056 0.379,-0.072C0.379,-0.079 0.381,-0.087 0.386,-0.096L0.414,-0.144C0.419,-0.153 0.421,-0.161 0.421,-0.168C0.421,-0.184 0.412,-0.192 0.394,-0.192L0.154,-0.192C0.141,-0.192 0.127,-0.187 0.112,-0.178C0.097,-0.169 0.085,-0.157 0.078,-0.144L0.022,-0.048C0.017,-0.039 0.015,-0.031 0.015,-0.024C0.015,-0.008 0.024,0 0.043,0L0.715,0C0.728,0 0.742,-0.005 0.756,-0.014C0.772,-0.023 0.783,-0.035 0.79,-0.048L0.901,-0.24C0.906,-0.249 0.909,-0.257 0.909,-0.264C0.909,-0.28 0.9,-0.288 0.881,-0.288L0.545,-0.288C0.526,-0.288 0.517,-0.296 0.517,-0.312C0.517,-0.32 0.519,-0.328 0.524,-0.336L0.58,-0.432C0.588,-0.445 0.599,-0.457 0.614,-0.466C0.629,-0.475 0.643,-0.48 0.656,-0.48C0.674,-0.48 0.683,-0.472 0.683,-0.456C0.683,-0.449 0.681,-0.441 0.676,-0.432L0.648,-0.384C0.643,-0.375 0.641,-0.367 0.641,-0.36C0.641,-0.344 0.65,-0.336 0.669,-0.336L0.909,-0.336Z" style="fill:rgb(222,229,237);fill-rule:nonzero;"/>
            </g>
        </g>
    </g>
</svg>
